<svg xmlns="http://www.w3.org/2000/svg" width="93.333" height="93.333" preserveAspectRatio="xMidYMid meet" version="1.0" viewBox="0 0 70 70"><metadata>Created by potrace 1.11, written by Peter Selinger 2001-2013</metadata><g fill="#000" stroke="none"><path d="M0 350 l0 -350 350 0 350 0 0 350 0 350 -350 0 -350 0 0 -350z m660 0 l0 -310 -310 0 -310 0 0 310 0 310 310 0 310 0 0 -310z" transform="translate(0.000000,70.000000) scale(0.100000,-0.100000)"/><path d="M180 555 l0 -24 130 -3 129 -3 -129 -163 c-89 -110 -130 -170 -130 -187 l0 -25 170 0 170 0 0 25 0 24 -134 3 -134 3 129 162 c88 111 129 171 129 188 l0 25 -165 0 -165 0 0 -25z" transform="translate(0.000000,70.000000) scale(0.100000,-0.100000)"/></g></svg>